<svg width="19" height="9" viewBox="0 0 19 9" fill="none" xmlns="http://www.w3.org/2000/svg">
<path d="M17.9447 0.593109L17.9448 0.593087C18.103 0.468968 18.3984 0.468981 18.5565 0.593067C18.6197 0.642632 18.6197 0.678171 18.6197 0.681754V0.681791V0.68183C18.6197 0.68541 18.6197 0.720929 18.5566 0.770473L18.5565 0.770528L9.86593 7.58871L9.86587 7.58876C9.80096 7.6397 9.69196 7.68182 9.56006 7.68182C9.42814 7.68182 9.31917 7.63973 9.25419 7.58875L8.95179 7.9742L9.25418 7.58875L0.563176 0.770569C0.563174 0.770568 0.563172 0.770567 0.563171 0.770565C0.49999 0.720996 0.499999 0.685462 0.5 0.681879V0.681841V0.681803C0.499999 0.678219 0.49999 0.642683 0.563176 0.593113L0.563208 0.593087C0.721389 0.468968 1.01681 0.468981 1.17498 0.593067L1.17498 0.59307L9.25144 6.92916L9.56007 7.17128L9.86869 6.92915L17.9447 0.593109Z" fill="black" stroke="black"/>
</svg>
